<svg width="254" height="254" viewBox="0 0 254 254" fill="none" xmlns="http://www.w3.org/2000/svg">
<path d="M254 194.259H0V194.386H254V194.259Z" fill="#EBEBEB"/>
<path d="M228.549 202.433H211.724V202.56H228.549V202.433Z" fill="#EBEBEB"/>
<path d="M168.26 203.815H163.845V203.942H168.26V203.815Z" fill="#EBEBEB"/>
<path d="M211.216 197.719H201.468V197.846H211.216V197.719Z" fill="#EBEBEB"/>
<path d="M48.5902 198.572H26.6497V198.699H48.5902V198.572Z" fill="#EBEBEB"/>
<path d="M56.3321 198.572H53.1165V198.699H56.3321V198.572Z" fill="#EBEBEB"/>
<path d="M114.376 200.716H66.7868V200.843H114.376V200.716Z" fill="#EBEBEB"/>
<path d="M120.396 171.602H22.3063C21.5378 171.601 20.8014 171.295 20.2585 170.751C19.7156 170.207 19.4107 169.47 19.4107 168.702V30.8152C19.4174 30.0512 19.7252 29.3207 20.2674 28.7823C20.8096 28.244 21.5422 27.9413 22.3063 27.9399H120.396C121.165 27.9399 121.903 28.2455 122.447 28.7895C122.991 29.3335 123.297 30.0713 123.297 30.8406V168.702C123.297 169.471 122.991 170.209 122.447 170.753C121.903 171.297 121.165 171.602 120.396 171.602ZM22.3063 28.0415C21.5715 28.0429 20.8673 28.3357 20.3483 28.8557C19.8292 29.3757 19.5377 30.0805 19.5377 30.8152V168.702C19.5377 169.436 19.8292 170.141 20.3483 170.661C20.8673 171.181 21.5715 171.474 22.3063 171.475H120.396C121.131 171.474 121.836 171.181 122.356 170.661C122.876 170.142 123.168 169.437 123.17 168.702V30.8152C123.168 30.08 122.876 29.3753 122.356 28.8554C121.836 28.3355 121.131 28.0429 120.396 28.0415H22.3063Z" fill="#EBEBEB"/>
<path d="M230.281 171.602H132.187C131.418 171.601 130.681 171.295 130.137 170.751C129.593 170.208 129.287 169.471 129.286 168.702V30.8152C129.294 30.0507 129.603 29.3202 130.146 28.782C130.689 28.2438 131.422 27.9412 132.187 27.9399H230.281C231.045 27.9426 231.776 28.2459 232.317 28.7841C232.858 29.3223 233.165 30.0521 233.172 30.8152V168.702C233.172 169.469 232.868 170.205 232.326 170.749C231.784 171.293 231.049 171.6 230.281 171.602ZM132.187 28.0415C131.451 28.0429 130.747 28.3355 130.227 28.8554C129.707 29.3753 129.414 30.08 129.413 30.8152V168.702C129.414 169.437 129.707 170.142 130.227 170.661C130.747 171.181 131.451 171.474 132.187 171.475H230.281C231.017 171.474 231.721 171.181 232.241 170.661C232.761 170.142 233.054 169.437 233.055 168.702V30.8152C233.054 30.08 232.761 29.3753 232.241 28.8554C231.721 28.3355 231.017 28.0429 230.281 28.0415H132.187Z" fill="#EBEBEB"/>
<path d="M83.5609 33.4009H47.3659V156.19H83.5609V33.4009Z" fill="#FAFAFA"/>
<path d="M78.171 33.4009H76.0578L63.434 156.19H65.5472L78.171 33.4009Z" fill="#F5F5F5"/>
<path d="M82.9208 33.8733H47.1322V34.9553H82.9208V33.8733Z" fill="#E0E0E0"/>
<path d="M82.9208 155.113H47.1322V157.429H82.9208V155.113Z" fill="#EBEBEB"/>
<path d="M82.3265 157.328H48.5089V157.429H82.3265V157.328Z" fill="#EBEBEB"/>
<path d="M48.5089 33.8734H82.3265V157.328H84.3534V32.3545H46.482V157.328H48.5089V33.8734Z" fill="#EBEBEB"/>
<path d="M123.84 33.4009H87.6452V156.19H123.84V33.4009Z" fill="#FAFAFA"/>
<path d="M113.797 33.4009H102.26L89.6366 156.19H101.173L113.797 33.4009Z" fill="#F5F5F5"/>
<path d="M124.216 33.8733H87.4116V34.9553H124.216V33.8733Z" fill="#E0E0E0"/>
<path d="M124.216 155.113H87.4116V157.429H124.216V155.113Z" fill="#EBEBEB"/>
<path d="M122.606 157.328H88.7882V157.429H122.606V157.328Z" fill="#EBEBEB"/>
<path d="M88.7882 33.8734H122.606V157.328H124.628V32.3545H86.7613V157.328H88.7882V33.8734Z" fill="#EBEBEB"/>
<path d="M163.098 33.4009H127.919V156.19H163.098V33.4009Z" fill="#FAFAFA"/>
<path d="M147.853 33.4009H145.74L133.116 156.19H135.23L147.853 33.4009Z" fill="#F5F5F5"/>
<path d="M163.479 33.8733H127.691V34.9553H163.479V33.8733Z" fill="#E0E0E0"/>
<path d="M163.479 155.113H127.691V157.429H163.479V155.113Z" fill="#EBEBEB"/>
<path d="M162.885 157.328H129.068V157.429H162.885V157.328Z" fill="#EBEBEB"/>
<path d="M129.068 33.8734H162.88V157.328H164.907V32.3545H127.041V157.328H129.068V33.8734Z" fill="#EBEBEB"/>
<path d="M204.394 33.4009H168.199V156.19H204.394V33.4009Z" fill="#FAFAFA"/>
<path d="M200.853 33.4009H189.316L176.687 156.19H188.229L200.853 33.4009Z" fill="#F5F5F5"/>
<path d="M203.754 33.8733H167.965V34.9553H203.754V33.8733Z" fill="#E0E0E0"/>
<path d="M203.754 155.113H167.965V157.429H203.754V155.113Z" fill="#EBEBEB"/>
<path d="M169.342 33.8734H203.159V157.328H205.186V32.3545H167.32V157.328H169.342V33.8734Z" fill="#EBEBEB"/>
<path d="M203.159 157.328H169.342V157.429H203.159V157.328Z" fill="#EBEBEB"/>
<path d="M74.8995 127.945H59.1871V155.118H74.8995V127.945Z" fill="#EBEBEB"/>
<path d="M71.882 124.145V130.962H70.6476H63.4441H62.2046V124.145H71.882Z" fill="#EBEBEB"/>
<path d="M71.882 130.962H73.8937V128.951H71.882V130.962Z" fill="#FAFAFA"/>
<path d="M67.9907 130.962H70.0024V128.951H67.9907V130.962Z" fill="#FAFAFA"/>
<path d="M64.0944 130.962H66.106V128.951H64.0944V130.962Z" fill="#FAFAFA"/>
<path d="M60.198 130.962H62.2097V128.951H60.198V130.962Z" fill="#F0F0F0"/>
<path d="M71.882 134.615H73.8937V132.603H71.882V134.615Z" fill="#F0F0F0"/>
<path d="M67.9907 134.615H70.0024V132.603H67.9907V134.615Z" fill="#F0F0F0"/>
<path d="M64.0944 134.615H66.106V132.603H64.0944V134.615Z" fill="#FAFAFA"/>
<path d="M60.198 134.615H62.2097V132.603H60.198V134.615Z" fill="#FAFAFA"/>
<path d="M71.882 138.272H73.8937V136.261H71.882V138.272Z" fill="#F0F0F0"/>
<path d="M67.9907 138.272H70.0024V136.261H67.9907V138.272Z" fill="#FAFAFA"/>
<path d="M64.0944 138.272H66.106V136.261H64.0944V138.272Z" fill="#FAFAFA"/>
<path d="M67.9907 127.802H70.0024V125.791H67.9907V127.802Z" fill="#FAFAFA"/>
<path d="M64.0944 127.802H66.106V125.791H64.0944V127.802Z" fill="#F0F0F0"/>
<path d="M60.198 138.272H62.2097V136.261H60.198V138.272Z" fill="#F0F0F0"/>
<path d="M71.882 141.93H73.8937V139.918H71.882V141.93Z" fill="#FAFAFA"/>
<path d="M67.9907 141.93H70.0024V139.918H67.9907V141.93Z" fill="#F0F0F0"/>
<path d="M64.0944 141.93H66.106V139.918H64.0944V141.93Z" fill="#F0F0F0"/>
<path d="M60.198 141.93H62.2097V139.918H60.198V141.93Z" fill="#FAFAFA"/>
<path d="M71.882 145.588H73.8937V143.576H71.882V145.588Z" fill="#F0F0F0"/>
<path d="M67.9907 145.588H70.0024V143.576H67.9907V145.588Z" fill="#FAFAFA"/>
<path d="M64.0944 145.588H66.106V143.576H64.0944V145.588Z" fill="#FAFAFA"/>
<path d="M60.198 145.588H62.2097V143.576H60.198V145.588Z" fill="#F0F0F0"/>
<path d="M71.882 149.24H73.8937V147.229H71.882V149.24Z" fill="#F0F0F0"/>
<path d="M67.9907 149.24H70.0024V147.229H67.9907V149.24Z" fill="#FAFAFA"/>
<path d="M64.0944 149.24H66.106V147.229H64.0944V149.24Z" fill="#F0F0F0"/>
<path d="M60.198 149.24H62.2097V147.229H60.198V149.24Z" fill="#FAFAFA"/>
<path d="M71.882 152.898H73.8937V150.886H71.882V152.898Z" fill="#FAFAFA"/>
<path d="M67.9907 152.898H70.0024V150.886H67.9907V152.898Z" fill="#FAFAFA"/>
<path d="M64.0944 152.898H66.106V150.886H64.0944V152.898Z" fill="#F0F0F0"/>
<path d="M60.198 152.898H62.2097V150.886H60.198V152.898Z" fill="#F0F0F0"/>
<path d="M185.593 137.841H171.516V155.113H185.593V137.841Z" fill="#F0F0F0"/>
<path d="M172.74 139.761H176.012H176.916H177.815V141.559H176.916H176.012H172.74V139.761Z" fill="#E6E6E6"/>
<path d="M172.74 143.251H176.012H176.916H177.815V145.054H176.916H176.012H172.74V143.251Z" fill="#FAFAFA"/>
<path d="M172.74 146.741H176.012H176.916H177.815V148.544H176.916H176.012H172.74V146.741Z" fill="#E6E6E6"/>
<path d="M172.74 150.231H176.012H177.404H177.815V152.034H177.404H176.012H172.74V150.231Z" fill="#FAFAFA"/>
<path d="M179.288 139.761H182.565H183.464H184.363V141.559H183.464H182.565H179.288V139.761Z" fill="#FAFAFA"/>
<path d="M179.288 143.251H182.565H183.835H184.363V145.054H183.835H182.565H179.288V143.251Z" fill="#FAFAFA"/>
<path d="M179.288 146.741H182.565H183.464H184.363V148.544H183.464H182.565H179.288V146.741Z" fill="#E6E6E6"/>
<path d="M179.288 150.231H182.565H183.464H184.363V152.034H183.464H182.565H179.288V150.231Z" fill="#FAFAFA"/>
<path d="M117.759 144.384H104.968V155.118H117.759V144.384Z" fill="#F0F0F0"/>
<path d="M115.306 147.361H116.942V145.725H115.306V147.361Z" fill="#FAFAFA"/>
<path d="M112.136 147.361H113.772V145.725H112.136V147.361Z" fill="#FAFAFA"/>
<path d="M108.961 147.361H110.597V145.725H108.961V147.361Z" fill="#FAFAFA"/>
<path d="M105.791 147.361H107.427V145.725H105.791V147.361Z" fill="#FAFAFA"/>
<path d="M115.306 150.332H116.942V148.697H115.306V150.332Z" fill="#FAFAFA"/>
<path d="M112.136 150.332H113.772V148.697H112.136V150.332Z" fill="#FAFAFA"/>
<path d="M108.961 150.332H110.597V148.697H108.961V150.332Z" fill="#FAFAFA"/>
<path d="M105.791 150.332H107.427V148.697H105.791V150.332Z" fill="#E6E6E6"/>
<path d="M115.306 153.309H116.942V151.674H115.306V153.309Z" fill="#E6E6E6"/>
<path d="M112.136 153.309H113.772V151.674H112.136V153.309Z" fill="#E6E6E6"/>
<path d="M108.961 153.309H110.597V151.674H108.961V153.309Z" fill="#FAFAFA"/>
<path d="M105.791 153.309H107.427V151.674H105.791V153.309Z" fill="#E6E6E6"/>
<path d="M103.236 136.449H90.4443V155.118H103.236V136.449Z" fill="#F0F0F0"/>
<path d="M102.418 137.267H97.6071V141.879H102.418V137.267Z" fill="#FAFAFA"/>
<path d="M96.073 137.267H91.2622V141.879H96.073V137.267Z" fill="#FAFAFA"/>
<path d="M102.418 143.215H97.6071V147.828H102.418V143.215Z" fill="#FAFAFA"/>
<path d="M96.073 143.215H91.2622V147.828H96.073V143.215Z" fill="#FAFAFA"/>
<path d="M102.418 149.164H97.6071V153.777H102.418V149.164Z" fill="#FAFAFA"/>
<path d="M96.073 149.164H91.2622V153.777H96.073V149.164Z" fill="#FAFAFA"/>
<path d="M127 217.201C181.398 217.201 225.496 214.626 225.496 211.45C225.496 208.274 181.398 205.699 127 205.699C72.6021 205.699 28.5039 208.274 28.5039 211.45C28.5039 214.626 72.6021 217.201 127 217.201Z" fill="#F5F5F5"/>
<path d="M225.842 40.4419V152.324L212.38 165.786H134.447V40.4419H225.842Z" fill="#356899"/>
<path opacity="0.8" d="M225.842 40.4419V152.324L212.38 165.786H134.447V40.4419H225.842Z" fill="white"/>
<path opacity="0.2" d="M212.38 165.786V152.72H225.842L212.644 165.918" fill="black"/>
<path opacity="0.1" d="M169.032 51.308H143.825C143.471 51.308 143.131 51.1673 142.88 50.9167C142.63 50.6661 142.489 50.3263 142.489 49.972C142.488 49.7961 142.522 49.6218 142.589 49.4591C142.656 49.2965 142.754 49.1486 142.878 49.024C143.003 48.8994 143.15 48.8005 143.312 48.733C143.475 48.6656 143.649 48.6309 143.825 48.6309H169.032C169.387 48.6322 169.727 48.7741 169.977 49.0255C170.227 49.2768 170.368 49.6172 170.368 49.972C170.368 50.3263 170.227 50.6661 169.977 50.9167C169.726 51.1673 169.386 51.308 169.032 51.308Z" fill="black"/>
<path opacity="0.1" d="M214.752 62.1488H153.985C153.809 62.1488 153.635 62.1141 153.472 62.0467C153.31 61.9792 153.163 61.8803 153.038 61.7557C152.914 61.6311 152.816 61.4832 152.749 61.3206C152.682 61.1579 152.648 60.9836 152.649 60.8077C152.649 60.4534 152.79 60.1136 153.04 59.863C153.291 59.6124 153.631 59.4717 153.985 59.4717H214.752C215.106 59.4717 215.446 59.6124 215.697 59.863C215.947 60.1136 216.088 60.4534 216.088 60.8077C216.088 61.1625 215.947 61.5029 215.697 61.7542C215.447 62.0056 215.107 62.1475 214.752 62.1488Z" fill="black"/>
<path opacity="0.1" d="M214.752 67.4167H143.825C143.471 67.4167 143.131 67.2759 142.88 67.0253C142.63 66.7748 142.489 66.435 142.489 66.0806C142.488 65.9047 142.522 65.7305 142.589 65.5678C142.656 65.4051 142.754 65.2572 142.878 65.1326C143.003 65.008 143.15 64.9091 143.312 64.8417C143.475 64.7742 143.649 64.7395 143.825 64.7395H214.752C215.107 64.7408 215.447 64.8827 215.697 65.1341C215.947 65.3855 216.088 65.7258 216.088 66.0806C216.088 66.435 215.947 66.7748 215.697 67.0253C215.446 67.2759 215.106 67.4167 214.752 67.4167Z" fill="black"/>
<path opacity="0.1" d="M214.752 73.3705H143.825C143.649 73.3705 143.475 73.3358 143.312 73.2683C143.15 73.2009 143.003 73.102 142.878 72.9774C142.754 72.8528 142.656 72.7049 142.589 72.5422C142.522 72.3796 142.488 72.2053 142.489 72.0294C142.489 71.6751 142.63 71.3352 142.88 71.0847C143.131 70.8341 143.471 70.6934 143.825 70.6934H214.752C215.106 70.6934 215.446 70.8341 215.697 71.0847C215.947 71.3352 216.088 71.6751 216.088 72.0294C216.088 72.3842 215.947 72.7246 215.697 72.9759C215.447 73.2273 215.107 73.3692 214.752 73.3705Z" fill="black"/>
<path opacity="0.1" d="M214.752 79.319H143.825C143.471 79.319 143.131 79.1783 142.88 78.9277C142.63 78.6772 142.489 78.3373 142.489 77.983C142.489 77.6287 142.63 77.2888 142.88 77.0383C143.131 76.7877 143.471 76.647 143.825 76.647H214.752C215.106 76.647 215.446 76.7877 215.697 77.0383C215.947 77.2888 216.088 77.6287 216.088 77.983C216.088 78.3373 215.947 78.6772 215.697 78.9277C215.446 79.1783 215.106 79.319 214.752 79.319Z" fill="black"/>
<path opacity="0.1" d="M214.752 85.2729H143.825C143.471 85.2729 143.131 85.1322 142.88 84.8816C142.63 84.631 142.489 84.2912 142.489 83.9369C142.488 83.7612 142.522 83.5872 142.589 83.4248C142.656 83.2624 142.755 83.1148 142.879 82.9907C143.003 82.8665 143.15 82.7681 143.313 82.7012C143.475 82.6343 143.649 82.6002 143.825 82.6008H214.752C215.106 82.6008 215.446 82.7416 215.697 82.9922C215.947 83.2427 216.088 83.5825 216.088 83.9369C216.088 84.2912 215.947 84.631 215.697 84.8816C215.446 85.1322 215.106 85.2729 214.752 85.2729Z" fill="black"/>
<path opacity="0.1" d="M214.752 91.2267H143.825C143.471 91.2267 143.131 91.086 142.88 90.8354C142.63 90.5848 142.489 90.245 142.489 89.8907C142.488 89.7148 142.522 89.5405 142.589 89.3778C142.656 89.2152 142.754 89.0673 142.878 88.9427C143.003 88.8181 143.15 88.7192 143.312 88.6517C143.475 88.5843 143.649 88.5496 143.825 88.5496H214.752C215.107 88.5509 215.447 88.6928 215.697 88.9442C215.947 89.1955 216.088 89.5359 216.088 89.8907C216.088 90.245 215.947 90.5848 215.697 90.8354C215.446 91.086 215.106 91.2267 214.752 91.2267Z" fill="black"/>
<path opacity="0.1" d="M214.757 94.5032H143.825C143.087 94.5032 142.489 95.1013 142.489 95.8392V95.8443C142.489 96.5822 143.087 97.1803 143.825 97.1803H214.757C215.495 97.1803 216.093 96.5822 216.093 95.8443V95.8392C216.093 95.1013 215.495 94.5032 214.757 94.5032Z" fill="black"/>
<path opacity="0.1" d="M214.752 103.124H143.825C143.471 103.124 143.131 102.983 142.88 102.733C142.63 102.482 142.489 102.142 142.489 101.788C142.489 101.434 142.63 101.094 142.88 100.843C143.131 100.593 143.471 100.452 143.825 100.452H214.752C215.106 100.452 215.446 100.593 215.697 100.843C215.947 101.094 216.088 101.434 216.088 101.788C216.088 102.142 215.947 102.482 215.697 102.733C215.446 102.983 215.106 103.124 214.752 103.124Z" fill="black"/>
<path opacity="0.1" d="M214.752 109.083H143.825C143.471 109.083 143.131 108.942 142.88 108.691C142.63 108.441 142.489 108.101 142.489 107.747C142.488 107.571 142.522 107.397 142.589 107.235C142.656 107.072 142.755 106.925 142.879 106.8C143.003 106.676 143.15 106.578 143.313 106.511C143.475 106.444 143.649 106.41 143.825 106.411H214.752C215.106 106.411 215.446 106.551 215.697 106.802C215.947 107.053 216.088 107.392 216.088 107.747C216.088 108.101 215.947 108.441 215.697 108.691C215.446 108.942 215.106 109.083 214.752 109.083Z" fill="black"/>
<path opacity="0.1" d="M214.752 115.037H143.825C143.471 115.037 143.131 114.896 142.88 114.645C142.63 114.395 142.489 114.055 142.489 113.701C142.488 113.525 142.522 113.35 142.589 113.188C142.656 113.025 142.754 112.877 142.878 112.752C143.003 112.628 143.15 112.529 143.312 112.462C143.475 112.394 143.649 112.359 143.825 112.359H214.752C215.107 112.361 215.447 112.503 215.697 112.754C215.947 113.005 216.088 113.346 216.088 113.701C216.088 114.055 215.947 114.395 215.697 114.645C215.446 114.896 215.106 115.037 214.752 115.037Z" fill="black"/>
<path opacity="0.1" d="M214.752 120.99H143.825C143.649 120.99 143.475 120.956 143.312 120.888C143.15 120.821 143.003 120.722 142.878 120.597C142.754 120.473 142.656 120.325 142.589 120.162C142.522 119.999 142.488 119.825 142.489 119.649C142.489 119.295 142.63 118.955 142.88 118.705C143.131 118.454 143.471 118.313 143.825 118.313H214.752C215.106 118.313 215.446 118.454 215.697 118.705C215.947 118.955 216.088 119.295 216.088 119.649C216.088 120.004 215.947 120.344 215.697 120.596C215.447 120.847 215.107 120.989 214.752 120.99Z" fill="black"/>
<path opacity="0.1" d="M174.112 126.939H143.825C143.471 126.939 143.131 126.798 142.88 126.548C142.63 126.297 142.489 125.957 142.489 125.603C142.489 125.249 142.63 124.909 142.88 124.658C143.131 124.408 143.471 124.267 143.825 124.267H174.112C174.466 124.267 174.806 124.408 175.057 124.658C175.307 124.909 175.448 125.249 175.448 125.603C175.448 125.957 175.307 126.297 175.057 126.548C174.806 126.798 174.466 126.939 174.112 126.939Z" fill="black"/>
<path d="M209.296 67.8586L209.199 67.7773C208.925 67.5691 208.768 67.6402 208.641 67.2389C208.549 66.9493 208.641 66.6242 208.534 66.3245C208.292 65.8085 208.015 65.3096 207.706 64.831L206.456 62.5805C206.177 62.0822 205.712 61.7147 205.163 61.5586C204.613 61.4024 204.025 61.4703 203.525 61.7474L192.019 68.1583C191.973 68.5444 191.653 68.8086 191.587 69.1743C191.564 69.2824 191.57 69.3946 191.604 69.4997C191.638 69.6048 191.699 69.6993 191.78 69.7738C191.651 69.7712 191.526 69.7267 191.425 69.6468C190.739 69.2658 190.556 68.961 189.85 69.3471C189.545 69.5096 189.245 69.6823 188.946 69.8551L185.898 71.5569L176.347 76.8756L165.171 83.1139L155.859 88.3006C154.589 89.0067 153.05 89.6264 151.917 90.5256C152.232 90.6881 152.288 90.9371 152.009 91.1809L151.501 91.6432C151.501 91.7702 151.684 91.7702 151.801 91.7194L152.43 91.4502C151.993 92.0058 151.466 92.4848 150.871 92.8675C149.872 93.4474 148.799 93.8883 147.681 94.1781L148.219 93.5025C148.26 93.4466 148.311 93.3755 148.275 93.3094C148.239 93.2434 148.173 93.2383 148.112 93.2332C147.843 93.2027 147.574 93.2332 147.376 93.0351C145.639 94.0511 143.82 95.0163 142.052 96.0018C141.554 96.2809 141.186 96.746 141.03 97.2953C140.874 97.8447 140.942 98.4336 141.219 98.933L152.822 119.761C152.959 120.008 153.143 120.226 153.365 120.401C153.586 120.577 153.84 120.707 154.112 120.785C154.384 120.862 154.668 120.885 154.949 120.852C155.229 120.82 155.501 120.732 155.748 120.594L158.801 118.872C158.801 118.511 159.085 118.11 158.872 117.78C158.842 117.74 158.822 117.692 158.816 117.643C158.816 117.577 158.877 117.526 158.933 117.49C159.246 117.292 159.604 117.176 159.974 117.155C160.101 117.155 160.269 117.211 160.249 117.333C160.249 117.221 160.904 116.987 161.011 116.952C161.061 117.226 160.873 117.521 161.193 117.577C161.514 117.632 162.001 117.069 162.209 116.967L165.257 115.265L174.909 109.896L185.496 103.998L192.532 100.076C192.786 99.9287 193.086 99.756 193.33 99.634C193.418 99.1682 193.644 98.7397 193.98 98.4047C194.488 98.0542 195.29 98.4402 195.712 97.9424C195.793 97.8459 195.844 97.729 195.915 97.6274C196.057 97.4622 196.23 97.3259 196.423 97.2261C196.546 97.1297 196.694 97.0714 196.85 97.0585C197.002 97.0585 197.165 97.1855 197.145 97.3379C198.191 97.094 199.136 96.3879 200.061 95.8647C200.396 95.6767 203.337 94.295 203.327 94.0765C203.286 93.4009 203.698 92.8218 203.678 92.1258C203.678 91.9937 203.418 91.1098 203.535 91.0437C200.894 92.6185 198.15 94.0511 195.458 95.5446C195.367 95.6005 195.021 95.7173 194.95 95.8189C194.95 95.8189 194.925 95.8647 194.915 95.8901L194.838 96.0577V96.0984C194.729 96.4441 194.6 96.7833 194.452 97.1143C194.452 97.1601 193.878 97.8713 193.832 97.7036C193.609 96.8857 193.324 96.7588 192.7 97.094L191.806 97.602L188.966 99.1819L179.4 104.516L168.128 110.795L158.735 116.027L154.798 118.217C154.012 116.794 153.221 115.374 152.425 113.955L150.901 111.216C150.747 110.837 150.519 110.492 150.231 110.2C150.012 110.038 149.642 110.079 149.449 109.931C148.976 109.571 148.636 108.915 148.189 108.494C147.884 108.209 147.422 107.356 147.549 106.883C147.701 106.944 147.853 107.01 148.006 107.056C147.926 106.743 147.944 106.413 148.057 106.111C146.533 103.546 145.131 100.863 143.673 98.2421L143.576 98.0745L147.132 96.0933L149.728 94.6455C150.262 94.416 150.772 94.1353 151.252 93.8073C151.582 93.5228 151.917 93.1672 152.268 92.8624C152.503 92.6835 152.759 92.5334 153.03 92.4153L153.99 91.948C154.039 91.9183 154.095 91.9009 154.153 91.8972C154.21 91.9035 154.266 91.9171 154.32 91.9378C154.828 92.0445 156.088 91.1047 156.545 90.8507L159.502 89.2048L168.422 84.2315L179.537 78.044L190.663 71.8413L199.614 66.8579L204.186 64.3179L204.399 64.201L209.342 73.0758C209.648 73.674 210.137 74.1583 210.739 74.4576C210.942 74.5236 211.171 74.6658 211.145 74.8741C211.12 75.0824 210.815 75.2551 210.886 75.4685C210.957 75.6818 211.348 75.6005 211.44 75.7936C211.531 75.9866 211.282 76.3016 211.313 76.5657C211.418 76.882 211.574 77.1789 211.775 77.4446L213.213 80.0303C214.015 81.4629 214.813 82.9005 215.621 84.3483L206.832 89.2454C206.876 89.2805 206.912 89.3236 206.939 89.3724L206.985 89.4893C207.159 89.5511 207.329 89.6258 207.493 89.7128C207.563 89.7519 207.621 89.8096 207.66 89.8795C207.699 89.9494 207.719 90.0288 207.716 90.109C207.715 90.1883 207.693 90.2659 207.652 90.3337C207.611 90.4016 207.552 90.4573 207.482 90.4951L206.944 90.7999C206.925 90.9177 206.87 91.0269 206.788 91.1131C206.705 91.1993 206.599 91.2583 206.482 91.2825C206.419 91.2877 206.356 91.2877 206.294 91.2825C206.24 91.3217 206.179 91.3488 206.114 91.3619C206.049 91.3751 205.982 91.374 205.918 91.3587C205.803 91.3233 205.706 91.245 205.647 91.1399C205.589 91.0349 205.573 90.9113 205.603 90.7948C205.624 90.7426 205.651 90.6931 205.684 90.6475C205.646 90.5735 205.628 90.4903 205.633 90.407C205.639 90.3238 205.667 90.2435 205.715 90.1751H205.552C205.461 90.1751 205.379 90.1243 205.293 90.0989C204.836 90.381 204.48 90.8008 204.277 91.2977C204.255 91.3249 204.244 91.3594 204.246 91.3943C204.246 91.4654 204.358 91.4705 204.424 91.5009C204.577 91.5721 204.541 91.7956 204.465 91.9429C204.389 92.0902 204.297 92.2782 204.399 92.4103C204.437 92.4547 204.48 92.4955 204.526 92.5322C204.744 92.7811 204.409 93.5025 204.942 93.2078C204.905 93.0509 204.929 92.8857 205.008 92.7456C205.099 92.6041 205.238 92.501 205.4 92.456C205.795 92.3601 206.198 92.3023 206.604 92.2833L217.195 86.36C217.694 86.081 218.061 85.6158 218.217 85.0665C218.373 84.5171 218.306 83.9282 218.029 83.4288L217.968 83.3222L213.182 74.7319L210.419 69.7636C210.149 69.2912 209.911 68.7984 209.616 68.3311C209.535 68.1576 209.427 67.9982 209.296 67.8586Z" fill="#356899"/>
<path d="M160.355 95.9257C160.005 95.499 160.111 95.4888 160.045 95.0316C160.045 95.0316 160.045 95.0316 160.045 95.0012L160.005 94.9554L159.944 94.8843C159.705 94.991 159.466 95.1078 159.228 95.2399L154.549 97.846L156.434 101.224C156.169 100.757 157.104 100.894 157.14 100.889C157.239 100.86 157.341 100.843 157.444 100.838C157.546 100.86 157.635 100.92 157.693 101.006C157.889 101.347 157.947 101.751 157.856 102.133C157.8 102.641 158.069 103.149 157.78 103.657C158.029 104.064 160.279 108.158 160.289 108.153L164.968 105.547C165.237 105.395 165.877 105.126 166.035 104.856C166.192 104.587 165.943 104.165 166.223 104.038C166.328 104 166.441 103.985 166.552 103.996C166.664 104.006 166.772 104.042 166.868 104.099C167.759 103.217 168.332 102.064 168.496 100.821C168.661 99.5776 168.408 98.315 167.777 97.2313C166.461 94.8691 163.474 93.4619 160.858 94.5592C160.675 94.6354 160.919 95.4533 160.482 95.5447C160.566 95.3809 160.686 95.2384 160.833 95.1282L160.355 95.9257ZM163.749 103.632L161.569 104.846C161.392 104.526 161.219 104.206 161.036 103.896C161.265 104.282 160.635 104.16 160.503 104.074C160.183 103.861 160.096 103.246 160.086 102.901C160.078 102.308 159.902 101.73 159.578 101.234C159.067 100.31 158.559 99.3852 158.054 98.4606L160.233 97.2465C162.265 96.1086 164.297 96.581 165.395 98.5521C166.492 100.523 165.796 102.509 163.749 103.632Z" fill="#356899"/>
<path d="M175.824 87.2744C175.935 87.5157 175.967 87.786 175.915 88.0465C175.89 88.1888 175.661 88.5545 175.692 88.646C175.773 88.8492 175.854 89.0524 175.931 89.2556C175.944 89.2888 175.963 89.3197 175.986 89.347C176.026 89.3733 176.071 89.3874 176.119 89.3877C176.926 89.4588 176.891 89.5401 176.941 90.2208C176.987 90.805 177.49 91.1403 177.775 91.6483C178.157 92.3157 178.323 93.0851 178.25 93.8507C178.177 94.6163 177.869 95.3406 177.368 95.924C176.867 96.5075 176.197 96.9215 175.452 97.1091C174.706 97.2968 173.92 97.2489 173.203 96.9721C173.184 96.9905 173.163 97.0075 173.142 97.0229C173.035 97.0767 172.913 97.0911 172.796 97.0635C172.532 96.9888 172.293 96.844 172.104 96.6446C171.916 96.4452 171.784 96.1986 171.724 95.9307C171.717 95.8904 171.717 95.8491 171.724 95.8088C171.581 95.6309 171.453 95.4405 171.343 95.2398C171.082 94.8201 170.911 94.3509 170.839 93.8618C170.768 93.3727 170.798 92.8741 170.928 92.3973C171.059 91.9204 171.286 91.4756 171.596 91.0906C171.906 90.7056 172.292 90.3887 172.73 90.1598C173.365 89.7975 174.094 89.6313 174.823 89.6823L174.782 89.6213C174.346 89.0422 175.92 88.8085 175.209 88.4174C174.909 88.2548 174.96 87.5182 174.884 87.2185C173.73 87.2446 172.601 87.557 171.597 88.1278C168.346 89.9414 167.223 93.5329 168.93 96.5962C169.648 97.914 170.836 98.9133 172.258 99.3953C172.592 99.5408 172.95 99.6234 173.314 99.6391C173.731 99.6035 173.528 99.6391 173.706 99.3902C173.883 99.1413 173.777 99.0346 174.046 98.7704C174.315 98.5063 174.63 98.3488 174.686 97.9424C174.686 98.1253 174.889 98.2573 174.889 98.4504C174.889 98.5063 174.889 98.5621 174.889 98.6129C174.9 98.6794 174.93 98.7412 174.976 98.7907C175.148 99.0244 175.438 99.2987 175.443 99.568C176.186 99.4447 176.9 99.1828 177.546 98.7958C180.782 96.9924 181.93 93.4059 180.213 90.3325C179.324 88.7628 177.653 87.376 175.824 87.2744Z" fill="#356899"/>
<path d="M186.212 80.203L189.697 86.4565L181.092 83.0529L179.121 84.1553C180.452 86.5429 181.864 88.9051 183.114 91.3384C183.2 91.0742 183.403 91.0234 183.647 90.9879C184.104 90.9269 184.089 91.1555 184.338 91.6076C184.368 91.6635 184.404 91.7194 184.46 91.7296C184.516 91.7397 184.628 91.6483 184.719 91.6584C184.81 91.6686 184.846 91.7803 184.821 91.8667C184.788 91.9513 184.746 92.0315 184.694 92.1055C184.546 92.3849 184.79 92.5627 184.76 92.8167C184.76 92.9488 184.318 93.4872 184.368 93.5787L184.876 94.4524L187.234 93.1418L186.604 92.014H186.487C185.801 92.1055 186.106 91.2063 185.953 90.8355C185.707 90.3102 185.427 89.8011 185.115 89.3115L183.728 86.868L190.724 89.6214C190.705 89.4204 190.73 89.218 190.795 89.027C190.85 88.9203 191.303 88.7222 191.303 88.6206C191.329 88.9482 191.482 89.2526 191.729 89.4689C191.999 89.7077 191.999 89.6722 191.948 90.0938L192.364 90.2614L194.325 89.1692L188.585 78.8721L186.212 80.203Z" fill="#356899"/>
<path d="M198.054 84.5972L196.723 82.2147L201.508 79.5477L200.492 77.6935L195.712 80.3605L194.467 78.1202L197.698 76.3219C197.835 76.1459 198.008 76.002 198.206 75.9003C198.307 75.8487 198.422 75.8361 198.531 75.8647L199.898 75.1078C199.898 75.1078 198.928 73.3755 198.836 73.1926C198.369 73.406 198.836 73.9953 198.364 74.2797C198.46 74.3813 198.603 74.742 198.364 74.7877C198.227 74.7877 198.125 74.615 197.988 74.6303C197.851 74.6455 197.846 74.7115 197.775 74.6912C197.753 74.6851 197.733 74.6742 197.716 74.6592C197.7 74.6443 197.686 74.6257 197.678 74.6049C197.612 74.4517 197.529 74.3067 197.429 74.1731C197.109 73.8632 194.188 75.8088 193.782 76.0374L191.064 77.5614L196.799 87.8586L199.09 86.5835L199.136 86.5226C199.304 86.3092 199.466 86.0907 199.644 85.8926C199.716 85.824 199.809 85.7805 199.907 85.7686C200.006 85.7567 200.106 85.777 200.193 85.8266C200.234 85.8479 200.27 85.8773 200.299 85.9129L204.775 83.4187L203.708 81.5035L198.054 84.5972Z" fill="#356899"/>
<path d="M204.165 194.163C204.165 194.163 200.823 186.878 204.638 179.69C208.453 172.502 209.565 170.81 207.132 169.342C204.699 167.874 203.576 175.087 203.576 175.087C203.576 175.087 201.544 170.119 203.215 164.927C204.887 159.735 205.974 151.262 203.662 150.353C201.351 149.443 203.22 160.914 201.214 164.826C200.191 162.08 199.53 159.213 199.248 156.296C198.973 152.121 199.405 145.456 197.576 143.744C195.748 142.032 194.584 143.236 196.378 152.43C197.455 157.938 198.052 163.528 198.161 169.139C198.161 169.139 194.193 157.048 191.557 156.698C188.92 156.347 188.9 160.254 191.181 163.652C193.462 167.051 197.83 173.126 198.547 176.276C198.547 176.276 194.198 167.183 190.282 169.967C186.365 172.75 193.69 178.252 196.952 180.238C200.213 182.225 202.484 194.666 202.484 194.666L204.165 194.163Z" fill="#356899"/>
<path opacity="0.2" d="M204.165 194.163C204.165 194.163 200.823 186.878 204.638 179.69C208.453 172.502 209.565 170.81 207.132 169.342C204.699 167.874 203.576 175.087 203.576 175.087C203.576 175.087 201.544 170.119 203.215 164.927C204.887 159.735 205.974 151.262 203.662 150.353C201.351 149.443 203.22 160.914 201.214 164.826C200.191 162.08 199.53 159.213 199.248 156.296C198.973 152.121 199.405 145.456 197.576 143.744C195.748 142.032 194.584 143.236 196.378 152.43C197.455 157.938 198.052 163.528 198.161 169.139C198.161 169.139 194.193 157.048 191.557 156.698C188.92 156.347 188.9 160.254 191.181 163.652C193.462 167.051 197.83 173.126 198.547 176.276C198.547 176.276 194.198 167.183 190.282 169.967C186.365 172.75 193.69 178.252 196.952 180.238C200.213 182.225 202.484 194.666 202.484 194.666L204.165 194.163Z" fill="black"/>
<path d="M201.524 197.155C201.524 197.155 204.78 189.814 200.878 182.687C196.977 175.56 195.844 173.883 198.262 172.374C200.68 170.866 201.879 178.069 201.879 178.069C201.879 178.069 203.871 173.076 202.118 167.909C200.365 162.743 199.197 154.285 201.498 153.345C203.799 152.405 202.067 163.901 204.119 167.777C205.11 165.019 205.736 162.143 205.979 159.222C206.207 155.042 205.694 148.382 207.503 146.644C209.311 144.907 210.495 146.075 208.808 155.316C207.797 160.836 207.269 166.433 207.228 172.044C207.228 172.044 211.049 159.898 213.705 159.507C216.362 159.116 216.403 163.027 214.168 166.456C211.933 169.885 207.615 176.032 206.929 179.156C206.929 179.156 211.17 170.012 215.118 172.73C219.065 175.448 211.811 181.061 208.575 183.093C205.339 185.125 203.2 197.612 203.2 197.612L201.524 197.155Z" fill="#356899"/>
<path d="M216.53 191.922H189.657L191.831 211.155H214.356L216.53 191.922Z" fill="#263238"/>
<path d="M79.06 70.9929H61.3258C60.6427 70.9929 59.9876 71.2643 59.5046 71.7473C59.0216 72.2303 58.7502 72.8854 58.7502 73.5685V90.81C58.7502 91.4931 59.0216 92.1482 59.5046 92.6312C59.9876 93.1142 60.6427 93.3856 61.3258 93.3856H67.0001L63.18 98.5773L69.784 93.3856H79.055C79.738 93.3856 80.3931 93.1142 80.8762 92.6312C81.3592 92.1482 81.6305 91.4931 81.6305 90.81V73.5685C81.6305 72.8863 81.3599 72.2319 80.878 71.7491C80.396 71.2662 79.7422 70.9943 79.06 70.9929Z" fill="#356899"/>
<path opacity="0.6" d="M79.06 70.9929H61.3258C60.6427 70.9929 59.9876 71.2643 59.5046 71.7473C59.0216 72.2303 58.7502 72.8854 58.7502 73.5685V90.81C58.7502 91.4931 59.0216 92.1482 59.5046 92.6312C59.9876 93.1142 60.6427 93.3856 61.3258 93.3856H67.0001L63.18 98.5773L69.784 93.3856H79.055C79.738 93.3856 80.3931 93.1142 80.8762 92.6312C81.3592 92.1482 81.6305 91.4931 81.6305 90.81V73.5685C81.6305 72.8863 81.3599 72.2319 80.878 71.7491C80.396 71.2662 79.7422 70.9943 79.06 70.9929Z" fill="white"/>
<path d="M70.1954 90.241C74.6423 90.241 78.2472 86.6361 78.2472 82.1892C78.2472 77.7424 74.6423 74.1375 70.1954 74.1375C65.7485 74.1375 62.1436 77.7424 62.1436 82.1892C62.1436 86.6361 65.7485 90.241 70.1954 90.241Z" fill="#356899"/>
<path opacity="0.2" d="M76.912 83.77C77.7878 80.0591 75.4896 76.3409 71.7787 75.465C68.0678 74.5892 64.3496 76.8874 63.4737 80.5983C62.5979 84.3091 64.8961 88.0274 68.607 88.9032C72.3179 89.7791 76.0361 87.4808 76.912 83.77Z" fill="black"/>
<path d="M69.3369 85.4861C69.2434 85.4881 69.1503 85.4716 69.0632 85.4376C68.976 85.4036 68.8964 85.3528 68.8289 85.288L65.8978 82.4178C65.763 82.2871 65.6857 82.1082 65.6829 81.9205C65.68 81.7329 65.7518 81.5517 65.8825 81.417C66.0132 81.2823 66.1921 81.205 66.3797 81.2021C66.5674 81.1993 66.7485 81.2711 66.8833 81.4018L69.2861 83.7538L73.4416 79.1158C73.569 78.9873 73.7408 78.9127 73.9216 78.9073C74.1025 78.9019 74.2785 78.9661 74.4133 79.0866C74.5482 79.2072 74.6317 79.3749 74.6465 79.5552C74.6614 79.7355 74.6065 79.9146 74.4931 80.0556L69.8449 85.2422C69.7808 85.314 69.7026 85.3717 69.6152 85.4119C69.5278 85.4521 69.4331 85.4739 69.3369 85.4759V85.4861Z" fill="white"/>
<path d="M47.1932 199.603L61.8287 198.161V181.656H67.6301V198.156L82.3265 199.603C83.0307 199.672 83.6843 200 84.1595 200.524C84.6348 201.048 84.8977 201.731 84.897 202.438V204.638H44.6227V202.438C44.622 201.731 44.8849 201.048 45.3602 200.524C45.8354 200 46.489 199.672 47.1932 199.603Z" fill="#263238"/>
<path opacity="0.1" d="M47.1932 199.603L61.8287 198.161V181.656H67.6301V198.156L82.3265 199.603C83.0307 199.672 83.6843 200 84.1595 200.524C84.6348 201.048 84.8977 201.731 84.897 202.438V204.638H44.6227V202.438C44.622 201.731 44.8849 201.048 45.3602 200.524C45.8354 200 46.489 199.672 47.1932 199.603Z" fill="white"/>
<path d="M83.3476 211.155C85.4434 211.155 87.1423 209.456 87.1423 207.36C87.1423 205.265 85.4434 203.566 83.3476 203.566C81.2518 203.566 79.5528 205.265 79.5528 207.36C79.5528 209.456 81.2518 211.155 83.3476 211.155Z" fill="#263238"/>
<path d="M46.1721 211.155C48.2679 211.155 49.9669 209.456 49.9669 207.36C49.9669 205.265 48.2679 203.566 46.1721 203.566C44.0763 203.566 42.3774 205.265 42.3774 207.36C42.3774 209.456 44.0763 211.155 46.1721 211.155Z" fill="#263238"/>
<path d="M66.5277 186.075H62.9107C62.3543 186.075 61.8207 185.854 61.4272 185.461C61.0337 185.067 60.8127 184.534 60.8127 183.977V167.752H68.6257V183.977C68.6257 184.534 68.4047 185.067 68.0112 185.461C67.6178 185.854 67.0841 186.075 66.5277 186.075Z" fill="#263238"/>
<path opacity="0.2" d="M66.5277 186.075H62.9107C62.3543 186.075 61.8207 185.854 61.4272 185.461C61.0337 185.067 60.8127 184.534 60.8127 183.977V167.752H68.6257V183.977C68.6257 184.534 68.4047 185.067 68.0112 185.461C67.6178 185.854 67.0841 186.075 66.5277 186.075Z" fill="white"/>
<path d="M44.4703 135.951C44.4703 135.951 48.8188 163.068 57.404 167.757H48.6766C48.6766 167.757 40.0406 158.511 37.4396 135.951H44.4703Z" fill="#263238"/>
<path opacity="0.1" d="M44.4703 135.951C44.4703 135.951 48.8188 163.068 57.404 167.757H48.6766C48.6766 167.757 40.0406 158.511 37.4396 135.951H44.4703Z" fill="white"/>
<path d="M48.26 163.921H82.2554C82.929 163.921 83.5751 164.189 84.0514 164.665C84.5278 165.142 84.7954 165.788 84.7954 166.461V169.86H45.72V166.461C45.72 165.788 45.9876 165.142 46.4639 164.665C46.9403 164.189 47.5864 163.921 48.26 163.921Z" fill="#356899"/>
<path d="M85.3846 166.888H45.0952C44.5312 166.888 44.0741 167.345 44.0741 167.909V168.834C44.0741 169.398 44.5312 169.855 45.0952 169.855H85.3846C85.9486 169.855 86.4057 169.398 86.4057 168.834V167.909C86.4057 167.345 85.9486 166.888 85.3846 166.888Z" fill="#263238"/>
<path opacity="0.6" d="M85.3846 166.888H45.0952C44.5312 166.888 44.0741 167.345 44.0741 167.909V168.834C44.0741 169.398 44.5312 169.855 45.0952 169.855H85.3846C85.9486 169.855 86.4057 169.398 86.4057 168.834V167.909C86.4057 167.345 85.9486 166.888 85.3846 166.888Z" fill="white"/>
<path d="M36.4084 141.468H50.3733C54.4678 141.468 57.1246 138.186 56.3118 134.137L55.2247 128.732C54.4119 124.668 50.4342 121.407 46.3448 121.407H32.3799C28.2854 121.407 25.6286 124.688 26.4414 128.732L27.5285 134.137C28.3413 138.176 32.3139 141.468 36.4084 141.468Z" fill="#356899"/>
<path d="M110.51 186.888L107.31 188.143L105.009 183.804L102.916 179.857L106.462 177.734L108.605 182.575L110.51 186.888Z" fill="#E4897B"/>
<path opacity="0.2" d="M108.605 182.575L105.009 183.804L102.916 179.857L106.462 177.734L108.605 182.575Z" fill="black"/>
<path d="M107.94 180.208L103.586 182.545C103.586 182.545 87.1322 153.614 84.6023 153.858C82.0725 154.102 58.0695 169.393 50.7492 163.744C43.4289 158.095 50.5511 141.087 50.5511 141.087C50.5511 141.087 65.6946 136.759 67.3151 140.071C67.7422 141.063 68.1053 142.081 68.4022 143.119C68.7222 144.16 68.9661 145.039 68.9661 145.039C69.4284 144.851 84.3839 138.72 91.059 141.991C97.8713 145.354 107.94 180.208 107.94 180.208Z" fill="#263238"/>
<path opacity="0.3" d="M107.94 180.208L103.586 182.545C103.586 182.545 87.1322 153.614 84.6023 153.858C82.0725 154.102 58.0695 169.393 50.7492 163.744C43.4289 158.095 50.5511 141.087 50.5511 141.087C50.5511 141.087 65.6946 136.759 67.3151 140.071C67.7422 141.063 68.1053 142.081 68.4022 143.119C68.7222 144.16 68.9661 145.039 68.9661 145.039C69.4284 144.851 84.3839 138.72 91.059 141.991C97.8713 145.354 107.94 180.208 107.94 180.208Z" fill="white"/>
<path d="M84.2874 203.799L80.8736 203.408L80.8533 198.592L80.8482 194.173L84.9782 193.98L84.6125 199.177L84.2874 203.799Z" fill="#E4897B"/>
<path opacity="0.2" d="M84.6023 199.283L80.8431 198.684V194.218L84.9732 194L84.6023 199.283Z" fill="black"/>
<path d="M101.458 181.107L107.828 177.917L108.494 180.619L103.668 183.109L101.458 181.107Z" fill="#356899"/>
<path d="M62.0573 163.789C62.0573 163.789 63.1038 163.672 79.2023 160.691C79.2023 160.691 79.568 181.275 80.33 196.621L85.2881 196.779C85.2881 196.779 92.4001 162.743 91.5619 157.582C90.7237 152.42 84.6074 151.745 84.6074 151.745C84.6074 151.745 73.9851 160.02 62.0573 163.789Z" fill="#263238"/>
<path opacity="0.4" d="M62.0573 163.789C62.0573 163.789 63.1038 163.672 79.2023 160.691C79.2023 160.691 79.568 181.275 80.33 196.621L85.2881 196.779C85.2881 196.779 92.4001 162.743 91.5619 157.582C90.7237 152.42 84.6074 151.745 84.6074 151.745C84.6074 151.745 73.9851 160.02 62.0573 163.789Z" fill="white"/>
<path opacity="0.3" d="M62.0573 163.789C62.0573 163.789 63.1038 163.672 79.2023 160.691C79.2023 160.691 79.568 181.275 80.33 196.621L85.2881 196.779C85.2881 196.779 92.4001 162.743 91.5619 157.582C90.7237 152.42 84.6074 151.745 84.6074 151.745C84.6074 151.745 73.9851 160.02 62.0573 163.789Z" fill="black"/>
<path d="M79.4207 195.25L86.1822 195.092L85.2576 197.876L79.7712 197.927L79.4207 195.25Z" fill="#356899"/>
<path opacity="0.3" d="M68.9864 145.049L60.2132 148.173C60.2132 148.173 64.8259 144.729 68.4225 143.129C68.7426 144.17 68.9864 145.049 68.9864 145.049Z" fill="black"/>
<path d="M49.5351 140.04L49.8602 142.474L66.3042 138.984L65.9232 136.108L49.5351 140.04Z" fill="#263238"/>
<path opacity="0.2" d="M49.5351 140.04L49.8602 142.474L66.3042 138.984L65.9232 136.108L49.5351 140.04Z" fill="black"/>
<path d="M54.9835 138.272L54.1644 138.424L54.9381 142.595L55.7573 142.443L54.9835 138.272Z" fill="#263238"/>
<path d="M62.154 137.217L58.5661 138.025L59.1792 140.746L62.7672 139.938L62.154 137.217Z" fill="white"/>
<path d="M64.461 135.518L63.6446 135.668L64.4081 139.825L65.2246 139.675L64.461 135.518Z" fill="#263238"/>
<path opacity="0.3" d="M54.9835 138.272L54.1644 138.424L54.9381 142.595L55.7573 142.443L54.9835 138.272Z" fill="white"/>
<path opacity="0.3" d="M64.461 135.518L63.6446 135.668L64.4081 139.825L65.2246 139.675L64.461 135.518Z" fill="white"/>
<path d="M116.87 192.568C116.336 192.404 115.777 192.34 115.219 192.38C115.219 192.38 113.152 191.516 110.647 187.406L108.514 187.686C108.155 187.74 107.821 187.903 107.558 188.152C107.294 188.402 107.114 188.727 107.041 189.083C107.025 189.184 107.025 189.286 107.041 189.387C107.133 189.903 107.258 190.412 107.417 190.911C107.964 192.563 108.61 194.179 109.352 195.753L109.698 195.61L108.595 192.532C108.229 191.48 109.504 192.369 110.18 193.385C110.856 194.401 111.816 195.387 114.097 194.523C116.749 193.487 117.8 192.938 116.87 192.568Z" fill="#263238"/>
<path d="M110.114 186.314C110.114 186.314 113.538 191.516 115.219 192.379C115.219 192.379 113.335 193.903 110.82 191.455C107.574 188.31 107.031 189.387 107.031 189.387C107.002 188.771 107.03 188.154 107.117 187.543C107.376 186.35 110.114 186.314 110.114 186.314Z" fill="#E4897B"/>
<path d="M89.408 209.855C88.9214 209.574 88.3878 209.385 87.8332 209.296C87.8332 209.296 86.0298 207.97 84.582 203.388L82.4433 203.154C82.0804 203.12 81.7158 203.199 81.4 203.381C81.0842 203.563 80.8328 203.839 80.6806 204.17C80.635 204.261 80.6041 204.359 80.5891 204.46C80.5536 204.979 80.5536 205.5 80.5891 206.019C80.727 207.753 80.9713 209.477 81.3207 211.181L81.6915 211.125L81.3613 207.863C81.2546 206.756 82.2859 207.924 82.7024 209.073C83.119 210.221 83.8149 211.404 86.233 211.105C89.0575 210.724 90.2056 210.439 89.408 209.855Z" fill="#263238"/>
<path d="M84.328 202.184C84.328 202.184 86.421 208.051 87.8484 209.296C87.8484 209.296 85.659 210.312 83.7844 207.355C81.3714 203.53 80.5942 204.45 80.5942 204.45C80.7078 203.846 80.8779 203.254 81.1022 202.682C81.6407 201.564 84.328 202.184 84.328 202.184Z" fill="#E4897B"/>
<path d="M45.9537 98.552L41.656 99.4156C41.4881 99.5571 41.2898 99.6577 41.0765 99.7097C40.8632 99.7617 40.6408 99.7636 40.4266 99.7153C39.1465 99.2073 37.3024 97.7189 37.0688 97.1753C36.7233 96.4083 37.0688 94.1578 37.973 93.7514C38.8772 93.345 41.9913 97.1042 41.9913 97.1042L46.609 96.0628L45.9537 98.552Z" fill="#E4897B"/>
<path d="M59.5071 112.837C59.5071 112.837 59.116 98.9127 57.5056 98.3183C55.8952 97.7239 43.7896 99.3851 43.7896 99.3851L43.495 96.205C43.495 96.205 57.5818 94.0359 60.3098 95.3211C63.0377 96.6063 63.9369 117.358 63.439 121.356L59.5071 112.837Z" fill="#356899"/>
<path opacity="0.6" d="M59.5071 112.837C59.5071 112.837 59.116 98.9127 57.5056 98.3183C55.8952 97.7239 43.7896 99.3851 43.7896 99.3851L43.495 96.205C43.495 96.205 57.5818 94.0359 60.3098 95.3211C63.0377 96.6063 63.9369 117.358 63.439 121.356L59.5071 112.837Z" fill="white"/>
<path d="M43.9979 99.6897L43.1546 96.1947L44.3636 95.7578L45.1307 99.7964L43.9979 99.6897Z" fill="#356899"/>
<path opacity="0.7" d="M43.9979 99.6897L43.1546 96.1947L44.3636 95.7578L45.1307 99.7964L43.9979 99.6897Z" fill="white"/>
<path d="M59.436 111.1C59.436 111.1 58.354 115.336 53.1419 116.688C47.9298 118.039 42.164 114.508 42.164 114.508L43.3121 124.617L49.6926 140.543L65.9994 136.291C65.9994 136.291 65.024 117.765 59.436 111.1Z" fill="#356899"/>
<path opacity="0.7" d="M59.436 111.1C59.436 111.1 58.354 115.336 53.1419 116.688C47.9298 118.039 42.164 114.508 42.164 114.508L43.3121 124.617L49.6926 140.543L65.9994 136.291C65.9994 136.291 65.024 117.765 59.436 111.1Z" fill="white"/>
<path opacity="0.6" d="M62.27 127.899L64.1788 127.297C64.3902 127.23 64.5075 127.004 64.4408 126.793L63.3036 123.189C63.237 122.977 63.0115 122.86 62.8002 122.927L60.8914 123.529C60.68 123.596 60.5627 123.821 60.6294 124.032L61.7666 127.637C61.8333 127.848 62.0587 127.965 62.27 127.899Z" fill="#356899"/>
<path opacity="0.2" d="M61.8813 126.8L64.0517 126.115L63.1147 123.145L60.9444 123.83L61.8813 126.8Z" fill="black"/>
<path d="M61.8086 122.072L61.329 122.223L61.8808 123.972L62.3604 123.821L61.8086 122.072Z" fill="#263238"/>
<path d="M48.3514 95.2754C44.3332 95.2754 41.6814 99.5324 42.6212 106.284C43.561 113.035 47.3253 114.981 47.3253 114.981L47.0865 113.35C51.2654 114.298 55.5738 114.539 59.8322 114.061C59.8322 114.061 57.8917 108.555 58.5216 102.931C58.5216 102.931 59.7967 95.2652 48.3514 95.2754Z" fill="#263238"/>
<path opacity="0.2" d="M56.3321 115.316L57.973 121.412L55.0875 119.212C55.0875 119.212 57.8968 125.633 58.6435 129.372C58.6435 129.372 56.2153 123.007 54.1223 119.517L52.898 123.012L47.9755 117.998C47.9755 117.998 52.324 114.666 56.3321 115.316Z" fill="black"/>
<path d="M53.9344 117.282L48.9255 117.434C51.1454 114.595 47.1322 109.647 47.1322 109.647L52.0802 110.719C53.2587 115.616 55.2958 115.763 55.2958 115.763L53.9344 117.282Z" fill="#E4897B"/>
<path opacity="0.2" d="M53.4619 114.234C51.5507 114.074 49.773 113.189 48.4937 111.76C48.0984 111.026 47.6431 110.326 47.1322 109.667L52.0802 110.744C52.3422 111.976 52.8093 113.156 53.4619 114.234Z" fill="black"/>
<path d="M52.0751 97.3429C56.388 97.7036 57.5869 100.127 57.531 104.602C57.465 110.19 55.9003 114.036 50.607 112.4C43.4137 110.18 44.9072 96.7435 52.0751 97.3429Z" fill="#E4897B"/>
<path d="M54.7624 104.14C55.0544 104.814 55.4262 105.45 55.8698 106.035C55.7278 106.201 55.5429 106.326 55.3352 106.395C55.1274 106.464 54.9047 106.475 54.6913 106.426L54.7624 104.14Z" fill="#DE5753"/>
<path d="M51.8414 103.419L52.7761 103.114C52.7761 103.114 52.2783 103.855 51.8414 103.419Z" fill="#263238"/>
<path d="M52.1665 103.312C51.9927 103.227 51.7938 103.207 51.6069 103.258C51.4199 103.308 51.2577 103.425 51.1505 103.586C51.31 103.514 51.4832 103.476 51.6585 103.476C51.8338 103.476 52.007 103.514 52.1665 103.586V103.312Z" fill="#263238"/>
<path d="M50.4292 101.254C50.3811 101.253 50.3355 101.233 50.3022 101.198C50.2845 101.182 50.2704 101.162 50.2608 101.14C50.2511 101.117 50.2462 101.093 50.2462 101.069C50.2462 101.045 50.2511 101.021 50.2608 100.998C50.2704 100.976 50.2845 100.956 50.3022 100.939C50.5854 100.692 50.9224 100.513 51.2865 100.418C51.6506 100.323 52.0319 100.313 52.4002 100.391C52.448 100.401 52.4899 100.43 52.5166 100.471C52.5432 100.511 52.5526 100.561 52.5424 100.609C52.5323 100.657 52.5037 100.699 52.4627 100.726C52.4217 100.752 52.3718 100.762 52.324 100.751C52.0166 100.689 51.6991 100.696 51.3948 100.772C51.0906 100.849 50.8075 100.993 50.5663 101.193C50.5493 101.213 50.5282 101.229 50.5045 101.239C50.4808 101.25 50.4551 101.255 50.4292 101.254Z" fill="#263238"/>
<path d="M57.1957 101.331C57.1555 101.332 57.1159 101.32 57.084 101.295C56.8807 101.109 56.6384 100.97 56.3747 100.889C56.1111 100.809 55.8328 100.788 55.56 100.828C55.5366 100.834 55.5122 100.836 55.4882 100.833C55.4642 100.83 55.4411 100.822 55.4201 100.81C55.3991 100.798 55.3807 100.782 55.3659 100.763C55.3511 100.744 55.3402 100.722 55.3339 100.698C55.3276 100.675 55.3259 100.651 55.329 100.627C55.332 100.603 55.3398 100.579 55.3519 100.558C55.3639 100.537 55.3799 100.519 55.3991 100.504C55.4182 100.489 55.4401 100.479 55.4634 100.472C55.7927 100.414 56.1309 100.432 56.4523 100.524C56.7737 100.617 57.0696 100.781 57.3176 101.006C57.3553 101.036 57.3795 101.081 57.3851 101.129C57.3908 101.177 57.3776 101.226 57.3481 101.265C57.3297 101.287 57.3063 101.305 57.2798 101.316C57.2534 101.328 57.2245 101.333 57.1957 101.331Z" fill="#263238"/>
<path d="M46.736 104.221C46.736 104.221 49.0474 100.848 48.9712 98.0846C48.9712 98.0846 57.8155 95.3007 57.5158 104.018C57.5158 104.018 58.989 96.398 51.5874 95.5903C44.1858 94.7826 43.3273 105.664 46.8884 109.22C46.8884 109.22 45.3187 106.334 46.736 104.221Z" fill="#263238"/>
<path d="M47.3812 105.191C47.3812 104.688 47.1817 104.206 46.8265 103.85C46.4713 103.494 45.9893 103.293 45.4863 103.292C44.135 103.327 43.2714 106.019 46.543 106.959C47.0103 107.091 47.3202 106.649 47.3812 105.191Z" fill="#E4897B"/>
<path d="M54.7268 107.696C54.4105 108.121 54.1269 108.569 53.8785 109.037C53.7921 109.007 53.7007 108.981 53.6143 108.946C52.4205 108.524 52.004 107.93 51.9074 107.422C51.862 107.164 51.8812 106.898 51.9633 106.65C52.0056 106.506 52.0672 106.37 52.1462 106.243C52.7669 106.833 53.5089 107.28 54.3204 107.554C54.5643 107.645 54.7268 107.696 54.7268 107.696Z" fill="#263238"/>
<path d="M54.3204 107.544L54.0614 107.935C52.9336 107.533 52.197 107.102 51.9633 106.639C52.0056 106.496 52.0672 106.359 52.1462 106.233C52.7669 106.823 53.5089 107.27 54.3204 107.544Z" fill="white"/>
<path d="M53.6143 108.946C52.4205 108.524 52.004 107.93 51.9074 107.422C52.3591 107.588 52.7772 107.834 53.1419 108.148C53.3784 108.358 53.5435 108.637 53.6143 108.946Z" fill="#DE5753"/>
<path d="M51.9582 97.663C51.9582 97.663 49.6265 104.617 45.1663 104.14C40.7061 103.662 48.3514 95.2601 48.3514 95.2601C48.3514 95.2601 55.8749 93.1113 59.1515 97.2921C62.4281 101.473 57.531 104.008 57.531 104.008C57.531 104.008 58.2625 98.552 51.9582 97.663Z" fill="#263238"/>
<path d="M48.4022 103.581C48.3765 103.58 48.3515 103.572 48.33 103.557C48.3085 103.543 48.2914 103.523 48.2803 103.5C48.2687 103.468 48.2702 103.432 48.2844 103.401C48.2986 103.369 48.3245 103.345 48.3565 103.332C51.9125 101.976 51.8312 97.2058 51.8312 97.155C51.8298 97.1384 51.8319 97.1216 51.8374 97.1059C51.843 97.0901 51.8518 97.0758 51.8633 97.0638C51.8749 97.0517 51.8889 97.0423 51.9044 97.0361C51.9199 97.03 51.9365 97.0272 51.9532 97.028C51.9862 97.029 52.0177 97.0419 52.042 97.0643C52.0662 97.0867 52.0816 97.1171 52.0852 97.1499C52.0852 97.2007 52.1665 102.149 48.448 103.571L48.4022 103.581Z" fill="#263238"/>
<path d="M56.2204 103.84L57.1551 103.541C57.1551 103.541 56.6522 104.277 56.2204 103.84Z" fill="#263238"/>
<path d="M56.5455 103.734C56.3713 103.648 56.1716 103.628 55.9843 103.68C55.797 103.731 55.6352 103.85 55.5295 104.013C55.6866 103.935 55.8587 103.892 56.0341 103.886C56.2095 103.881 56.384 103.914 56.5455 103.983V103.734Z" fill="#263238"/>
<path d="M49.6316 115.382L53.406 117.302L53.3451 121.128L47.9501 117.983L49.6316 115.382Z" fill="#356899"/>
<path d="M53.9801 114.661L54.2036 116.982L56.6674 119.588L56.3321 115.301L53.9801 114.661Z" fill="#356899"/>
<path d="M36.5404 88.3919L34.9656 84.3279C34.9944 84.1106 34.9722 83.8897 34.9008 83.6825C34.8293 83.4753 34.7107 83.2875 34.5542 83.1341C33.4569 82.3162 31.1912 81.5746 30.6222 81.6609C29.7942 81.7828 28.0822 83.2814 28.2296 84.2619C28.3769 85.2423 33.213 85.8468 33.213 85.8468L34.8183 90.302L36.5404 88.3919Z" fill="#E4897B"/>
<path d="M43.3222 124.617C43.3222 124.617 46.3702 122.194 45.1561 116.84L41.8795 102.027L36.2509 86.7256L33.4975 88.1175C33.4975 88.1175 38.1203 103.068 38.547 104.079C38.7655 104.587 39.6342 112.344 40.8178 117.541C41.9049 122.326 43.3222 124.617 43.3222 124.617Z" fill="#356899"/>
<path opacity="0.6" d="M43.3222 124.617C43.3222 124.617 46.3702 122.194 45.1561 116.84L41.8795 102.027L36.2509 86.7256L33.4975 88.1175C33.4975 88.1175 38.1203 103.068 38.547 104.079C38.7655 104.587 39.6342 112.344 40.8178 117.541C41.9049 122.326 43.3222 124.617 43.3222 124.617Z" fill="white"/>
<path d="M33.0149 87.6807L36.2306 86.0703L36.9316 87.1422L33.1724 88.8084L33.0149 87.6807Z" fill="#356899"/>
<path opacity="0.7" d="M33.0149 87.6807L36.2306 86.0703L36.9316 87.1422L33.1724 88.8084L33.0149 87.6807Z" fill="white"/>
<path opacity="0.6" d="M49.6316 115.382L53.406 117.302L53.3451 121.128L47.9501 117.983L49.6316 115.382Z" fill="white"/>
<path opacity="0.6" d="M53.9801 114.661L54.2036 116.982L56.6674 119.588L56.3321 115.301L53.9801 114.661Z" fill="white"/>
<path d="M161.168 107.396H145.948V119.223H161.168V107.396Z" fill="white"/>
<path opacity="0.1" d="M161.168 107.396H157.267V119.223H161.168V107.396Z" fill="black"/>
<path d="M145.075 129.667H162.281V108.204H156.738L145.075 113.787V129.667Z" fill="#356899"/>
<path opacity="0.2" d="M162.281 108.204H156.738V129.667H162.281V108.204Z" fill="black"/>
<path opacity="0.7" d="M154.904 118.019H146.848V121.879H154.904V118.019Z" fill="white"/>
<path opacity="0.7" d="M154.904 123.17H146.848V123.723H154.904V123.17Z" fill="white"/>
<path opacity="0.7" d="M161.742 124.79H157.267V128.067H161.742V124.79Z" fill="white"/>
<path d="M154.701 106.751H139.482V119.223H154.701V106.751Z" fill="white"/>
<path opacity="0.1" d="M154.701 106.751H150.8V119.223H154.701V106.751Z" fill="black"/>
<path d="M138.608 129.667H155.814V108.204H150.271L138.608 113.787V129.667Z" fill="#356899"/>
<path opacity="0.2" d="M155.814 108.204H150.271V129.667H155.814V108.204Z" fill="black"/>
<path opacity="0.7" d="M148.438 118.019H140.381V121.879H148.438V118.019Z" fill="white"/>
<path opacity="0.7" d="M148.438 123.17H140.381V123.723H148.438V123.17Z" fill="white"/>
<path opacity="0.7" d="M155.275 124.79H150.8V128.067H155.275V124.79Z" fill="white"/>
<path d="M127.919 211.155H131.034L136.622 133.304H132.491L127.919 211.155Z" fill="#263238"/>
<path opacity="0.1" d="M127.919 211.155H131.034L136.347 137.17L136.622 133.431H132.491L132.273 137.17L127.919 211.155Z" fill="white"/>
<path opacity="0.2" d="M132.273 136.987H136.347L136.622 133.431H132.491L132.273 136.987Z" fill="black"/>
<path d="M105.08 211.155H108.194L108.702 133.304H104.572L105.08 211.155Z" fill="#263238"/>
<path opacity="0.1" d="M104.567 133.431L104.653 145.989L105.075 211.155H108.189L108.615 145.989L108.697 133.431H104.567Z" fill="white"/>
<path opacity="0.2" d="M104.567 133.431L104.653 146.131H108.615L108.697 133.431H104.567Z" fill="black"/>
<path d="M72.0395 211.155H75.1535L80.7415 133.304H76.6115L72.0395 211.155Z" fill="#263238"/>
<path opacity="0.1" d="M72.0395 211.155H75.1535L80.4723 137.17L80.7415 133.431H76.6115L76.393 137.17L72.0395 211.155Z" fill="white"/>
<path opacity="0.2" d="M76.393 136.987H80.4723L80.7415 133.431H76.6115L76.393 136.987Z" fill="black"/>
<path d="M163.52 211.155H166.634L162.057 133.304H157.927L163.52 211.155Z" fill="#263238"/>
<path opacity="0.1" d="M157.927 133.431L158.206 137.17L163.52 211.155H166.629L162.281 137.17L162.057 133.431H157.927Z" fill="white"/>
<path opacity="0.2" d="M162.057 133.431H157.927L158.206 136.987H162.281L162.057 133.431Z" fill="black"/>
<path d="M164.236 135.255H74.4423C74.2982 135.255 74.1555 135.227 74.0224 135.172C73.8893 135.116 73.7683 135.036 73.6664 134.934C73.5645 134.832 73.4837 134.711 73.4286 134.578C73.3734 134.445 73.345 134.302 73.345 134.158V131.359H165.334V134.158C165.334 134.302 165.305 134.445 165.25 134.578C165.195 134.711 165.114 134.832 165.012 134.934C164.91 135.036 164.789 135.116 164.656 135.172C164.523 135.227 164.38 135.255 164.236 135.255Z" fill="#356899"/>
<path opacity="0.4" d="M164.236 135.255H74.4423C74.2982 135.255 74.1555 135.227 74.0224 135.172C73.8893 135.116 73.7683 135.036 73.6664 134.934C73.5645 134.832 73.4837 134.711 73.4286 134.578C73.3734 134.445 73.345 134.302 73.345 134.158V131.359H165.334V134.158C165.334 134.302 165.305 134.445 165.25 134.578C165.195 134.711 165.114 134.832 165.012 134.934C164.91 135.036 164.789 135.116 164.656 135.172C164.523 135.227 164.38 135.255 164.236 135.255Z" fill="white"/>
<path opacity="0.2" d="M73.345 133.304H165.334V131.354H73.345V133.304Z" fill="black"/>
<path d="M71.4146 131.862H167.259C167.403 131.862 167.546 131.834 167.68 131.779C167.813 131.724 167.934 131.644 168.036 131.542C168.138 131.44 168.219 131.318 168.274 131.185C168.329 131.052 168.357 130.909 168.356 130.764C168.356 130.473 168.241 130.194 168.035 129.988C167.829 129.783 167.55 129.667 167.259 129.667H71.4146C71.1232 129.667 70.8435 129.782 70.6369 129.988C70.4304 130.194 70.3136 130.473 70.3123 130.764C70.3123 130.909 70.3408 131.052 70.3963 131.185C70.4518 131.319 70.533 131.44 70.6355 131.542C70.7379 131.644 70.8595 131.725 70.9932 131.779C71.1269 131.834 71.2701 131.862 71.4146 131.862Z" fill="#356899"/>
<path opacity="0.4" d="M71.4146 131.862H167.259C167.403 131.862 167.546 131.834 167.68 131.779C167.813 131.724 167.934 131.644 168.036 131.542C168.138 131.44 168.219 131.318 168.274 131.185C168.329 131.052 168.357 130.909 168.356 130.764C168.356 130.473 168.241 130.194 168.035 129.988C167.829 129.783 167.55 129.667 167.259 129.667H71.4146C71.1232 129.667 70.8435 129.782 70.6369 129.988C70.4304 130.194 70.3136 130.473 70.3123 130.764C70.3123 130.909 70.3408 131.052 70.3963 131.185C70.4518 131.319 70.533 131.44 70.6355 131.542C70.7379 131.644 70.8595 131.725 70.9932 131.779C71.1269 131.834 71.2701 131.862 71.4146 131.862Z" fill="white"/>
<path d="M146.665 129.657V127.94H147.818L146.665 127.269H147.528L146.375 126.517H145.283V125.654H146.553L145.283 125.151V123.276H146.553V122.052H147.818L146.553 121.625V120.752H147.457L146.715 120.015L146.075 119.37H126.446V120.249H125.151L126.594 120.899V121.625H123.947V122.977H122.773L123.947 123.566V125.075H124.78V125.796H126.446V127.94H125.512L126.279 128.707V129.667L146.665 129.657Z" fill="#356899"/>
<path opacity="0.7" d="M146.665 129.657V127.94H147.818L146.665 127.269H147.528L146.375 126.517H145.283V125.654H146.553L145.283 125.151V123.276H146.553V122.052H147.818L146.553 121.625V120.752H147.457L146.715 120.015L146.075 119.37H126.446V120.249H125.151L126.594 120.899V121.625H123.947V122.977H122.773L123.947 123.566V125.075H124.78V125.796H126.446V127.94H125.512L126.279 128.707V129.667L146.665 129.657Z" fill="white"/>
<path opacity="0.1" d="M146.665 129.657V127.94H147.818L146.665 127.269H147.528L146.375 126.517H145.283V125.654H146.553L145.283 125.151V123.276H146.553V122.052H147.818L146.553 121.625V120.752H147.457L146.715 120.015L146.075 119.37H135.738V120.249H134.442L135.88 120.899V121.625H133.233V122.977H132.06L133.233 123.566V125.075H134.066V125.796H135.738V127.94H134.803L135.565 128.707V129.667L146.665 129.657Z" fill="black"/>
<path opacity="0.1" d="M126.594 121.626H135.88L126.594 121.29V121.626Z" fill="black"/>
<path opacity="0.1" d="M126.446 125.796H135.738L135.778 126.446L126.446 125.796Z" fill="black"/>
<path opacity="0.1" d="M124.78 125.075H134.066L124.78 125.4V125.075Z" fill="black"/>
<path opacity="0.1" d="M126.446 127.94H135.738L126.446 127.6V127.94Z" fill="black"/>
<path opacity="0.1" d="M126.279 128.707H135.565V129.063L126.279 128.707Z" fill="black"/>
<path opacity="0.1" d="M123.947 122.977H133.233L123.947 122.682V122.977Z" fill="black"/>
<path opacity="0.1" d="M126.446 120.249H135.738L126.446 119.924V120.249Z" fill="black"/>
<path opacity="0.1" d="M146.553 120.752H137.13L146.553 121.041V120.752Z" fill="black"/>
<path opacity="0.1" d="M135.88 121.625H146.553L136.876 121.94L135.88 121.625Z" fill="black"/>
<path opacity="0.1" d="M133.233 122.977L146.553 123.277V122.977H133.233Z" fill="black"/>
<path opacity="0.1" d="M133.233 123.566H139.822L133.233 123.886V123.566Z" fill="black"/>
<path opacity="0.1" d="M145.283 125.151L135.738 125.075L145.283 124.861V125.151Z" fill="black"/>
<path opacity="0.1" d="M145.283 125.654H135.565L145.283 125.979V125.654Z" fill="black"/>
<path opacity="0.1" d="M146.665 127.269H135.88V127.599L146.665 127.269Z" fill="black"/>
<path opacity="0.1" d="M146.665 127.94H138.852L146.665 128.158V127.94Z" fill="black"/>
<path d="M121.671 127.442V129.073C121.671 129.489 121.163 129.662 120.762 129.662H88.1888C87.7722 129.662 87.2693 129.489 87.2693 129.073V127.442H121.671Z" fill="#263238"/>
<path opacity="0.4" d="M121.671 127.442V129.073C121.671 129.489 121.163 129.662 120.762 129.662H88.1888C87.7722 129.662 87.2693 129.489 87.2693 129.073V127.442H121.671Z" fill="white"/>
<path opacity="0.2" d="M121.671 127.442V129.073C121.671 129.489 121.163 129.662 120.762 129.662H99.2784C98.8619 129.662 98.364 129.489 98.364 129.073V127.442H121.671Z" fill="black"/>
<path d="M127.122 110.516L123.241 128.108C123.174 128.393 123.014 128.648 122.786 128.832C122.557 129.016 122.274 129.119 121.981 129.124H100.802C100.671 129.121 100.541 129.087 100.425 129.026C100.308 128.965 100.207 128.877 100.13 128.771C100.052 128.664 100.001 128.541 99.9793 128.411C99.9577 128.281 99.9664 128.147 100.005 128.021L103.876 110.566C103.955 110.3 104.124 110.069 104.353 109.912C104.582 109.754 104.859 109.681 105.136 109.703H126.319C126.888 109.682 127.244 109.942 127.122 110.516Z" fill="#263238"/>
<path opacity="0.4" d="M127.122 110.515L123.241 128.107C123.174 128.393 123.014 128.648 122.786 128.832C122.557 129.016 122.274 129.119 121.981 129.123H101.519C101.387 129.121 101.258 129.087 101.141 129.026C101.024 128.965 100.923 128.877 100.846 128.77C100.769 128.664 100.717 128.54 100.696 128.41C100.674 128.28 100.683 128.147 100.721 128.021L104.597 110.566C104.676 110.299 104.844 110.068 105.073 109.91C105.303 109.753 105.58 109.68 105.857 109.703H126.319C126.888 109.682 127.244 109.941 127.122 110.515Z" fill="white"/>
<path opacity="0.2" d="M116.677 119.456C116.677 120.98 115.062 122.184 113.878 122.184C112.695 122.184 111.994 120.96 112.354 119.456C112.715 117.953 113.878 116.779 115.026 116.733C114.691 118.257 115.413 119.456 116.591 119.456H116.677Z" fill="black"/>
</svg>
