<svg width="26" height="26" viewBox="0 0 26 26" fill="none" xmlns="http://www.w3.org/2000/svg">
<path d="M8.57984 14.5923C10.1073 14.5923 11.3315 15.8283 11.3315 17.3667V21.0598C11.3315 22.5873 10.1073 23.8331 8.57984 23.8331H4.91817C3.4015 23.8331 2.1665 22.5873 2.1665 21.0598V17.3667C2.1665 15.8283 3.4015 14.5923 4.91817 14.5923H8.57984ZM21.0816 14.5923C22.5983 14.5923 23.8333 15.8283 23.8333 17.3667V21.0598C23.8333 22.5873 22.5983 23.8331 21.0816 23.8331H17.4199C15.8924 23.8331 14.6683 22.5873 14.6683 21.0598V17.3667C14.6683 15.8283 15.8924 14.5923 17.4199 14.5923H21.0816ZM8.57984 2.16675C10.1073 2.16675 11.3315 3.41258 11.3315 4.94116V8.63425C11.3315 10.1726 10.1073 11.4076 8.57984 11.4076H4.91817C3.4015 11.4076 2.1665 10.1726 2.1665 8.63425V4.94116C2.1665 3.41258 3.4015 2.16675 4.91817 2.16675H8.57984ZM21.0816 2.16675C22.5983 2.16675 23.8333 3.41258 23.8333 4.94116V8.63425C23.8333 10.1726 22.5983 11.4076 21.0816 11.4076H17.4199C15.8924 11.4076 14.6683 10.1726 14.6683 8.63425V4.94116C14.6683 3.41258 15.8924 2.16675 17.4199 2.16675H21.0816Z" fill="#CACBCE"/>
</svg>
