<svg width="20" height="20" viewBox="0 0 20 20" fill="none" xmlns="http://www.w3.org/2000/svg">
<path d="M10 9.56506C11.17 9.56506 12.292 9.10029 13.1193 8.27301C13.9466 7.44573 14.4113 6.3237 14.4113 5.15374C14.4113 3.98379 13.9466 2.86176 13.1193 2.03448C12.292 1.20719 11.17 0.742432 10 0.742432C8.83005 0.742432 7.70801 1.20719 6.88073 2.03448C6.05345 2.86176 5.58869 3.98379 5.58869 5.15374C5.58869 6.3237 6.05345 7.44573 6.88073 8.27301C7.70801 9.10029 8.83005 9.56506 10 9.56506ZM10 11.5032C4.13487 11.5032 0.375 14.7398 0.375 16.3157V19.2583H19.625V16.3157C19.625 14.4099 16.0655 11.5032 10 11.5032Z" fill="#CACBCE"/>
</svg>
